<svg xmlns="http://www.w3.org/2000/svg" xmlns:xlink="http://www.w3.org/1999/xlink" width="225.117" height="36.005" viewBox="0 0 225.117 36.005"><defs><clipPath id="a"><rect width="225.117" height="36.005" fill="none"/></clipPath></defs><g clip-path="url(#a)"><g transform="translate(-612.383 -8478.498)"><path d="M18.232,1.252l-4.591,9.309-10.273,1.5A2.251,2.251,0,0,0,2.123,15.9L9.555,23.14,7.8,33.37a2.249,2.249,0,0,0,3.262,2.37l9.19-4.83,9.19,4.83A2.25,2.25,0,0,0,32.7,33.37L30.945,23.14,38.377,15.9a2.251,2.251,0,0,0-1.245-3.839l-10.273-1.5L22.268,1.252a2.252,2.252,0,0,0-4.036,0Z" transform="translate(610.941 8478.499)" fill="#f8dd0a"/></g><g transform="translate(-566.383 -8478.498)"><path d="M18.232,1.252l-4.591,9.309-10.273,1.5A2.251,2.251,0,0,0,2.123,15.9L9.555,23.14,7.8,33.37a2.249,2.249,0,0,0,3.262,2.37l9.19-4.83,9.19,4.83A2.25,2.25,0,0,0,32.7,33.37L30.945,23.14,38.377,15.9a2.251,2.251,0,0,0-1.245-3.839l-10.273-1.5L22.268,1.252a2.252,2.252,0,0,0-4.036,0Z" transform="translate(610.941 8478.499)" fill="#f8dd0a"/></g><g transform="translate(-520.383 -8478.498)"><path d="M18.232,1.252l-4.591,9.309-10.273,1.5A2.251,2.251,0,0,0,2.123,15.9L9.555,23.14,7.8,33.37a2.249,2.249,0,0,0,3.262,2.37l9.19-4.83,9.19,4.83A2.25,2.25,0,0,0,32.7,33.37L30.945,23.14,38.377,15.9a2.251,2.251,0,0,0-1.245-3.839l-10.273-1.5L22.268,1.252a2.252,2.252,0,0,0-4.036,0Z" transform="translate(610.941 8478.499)" fill="#f8dd0a"/></g><g transform="translate(-474.383 -8478.498)"><path d="M18.232,1.252l-4.591,9.309-10.273,1.5A2.251,2.251,0,0,0,2.123,15.9L9.555,23.14,7.8,33.37a2.249,2.249,0,0,0,3.262,2.37l9.19-4.83,9.19,4.83A2.25,2.25,0,0,0,32.7,33.37L30.945,23.14,38.377,15.9a2.251,2.251,0,0,0-1.245-3.839l-10.273-1.5L22.268,1.252a2.252,2.252,0,0,0-4.036,0Z" transform="translate(610.941 8478.499)" fill="#f8dd0a"/></g><g transform="translate(-428.383 -8478.498)"><path d="M18.232,1.252l-4.591,9.309-10.273,1.5A2.251,2.251,0,0,0,2.123,15.9L9.555,23.14,7.8,33.37a2.249,2.249,0,0,0,3.262,2.37l9.19-4.83,9.19,4.83A2.25,2.25,0,0,0,32.7,33.37L30.945,23.14,38.377,15.9a2.251,2.251,0,0,0-1.245-3.839l-10.273-1.5L22.268,1.252a2.252,2.252,0,0,0-4.036,0Z" transform="translate(610.941 8478.499)" fill="#f8dd0a"/></g></g></svg>