<svg xmlns="http://www.w3.org/2000/svg" width="73.331" height="73.331" viewBox="0 0 73.331 73.331"><g transform="translate(-1519.78 -1408.153)"><path d="M261.16,363.345v9.992a38.334,38.334,0,0,1,11.8-1.879,36.871,36.871,0,0,1,11.714,1.912l0-9.992a35.444,35.444,0,0,0-11.719-2A36.813,36.813,0,0,0,261.16,363.345Z" transform="translate(1283.517 1082.969)" fill="#fff"/><path d="M49.255,0A36.665,36.665,0,1,0,85.921,36.666,36.665,36.665,0,0,0,49.255,0ZM37.909,16.081a2.22,2.22,0,0,1,1.667-.993c.579-.943,2.836-3.789,9.067-3.973V11.1h1.226v.01c6.231.184,8.489,3.031,9.067,3.973a2.23,2.23,0,0,1,1.668.993,1.173,1.173,0,0,1-.087,1.1V32.988l-.747-.22c-.459-.135-.958-.27-1.525-.412l-.442-.11V21.128a1.286,1.286,0,0,0-.111-.656,1.231,1.231,0,0,0-.575.335,3.348,3.348,0,0,0-1.156,2.116v8.928l-.677-.111c-.522-.086-1.035-.159-1.525-.219l-.512-.062V22.916c0-.731,0-2.4-3.394-2.544l-.594-.009h-.485c-3.506.113-3.506,1.809-3.506,2.548v8.546l-.514.062c-.508.061-1.022.133-1.525.214l-.674.118V22.916A3.348,3.348,0,0,0,41.4,20.8a1.232,1.232,0,0,0-.576-.335,1.293,1.293,0,0,0-.11.656V32.227l-.446.107c-.513.125-1.027.26-1.525.4l-.744.218V17.181A1.171,1.171,0,0,1,37.909,16.081ZM70.854,55.945H66.618l-.182-.114A31.969,31.969,0,0,0,49.3,50.666a31.6,31.6,0,0,0-17.221,5.144l-.193.133h-4.23V52.116h2.331V50.951H32.3v-.576l.378-.216c.028-.015.617-.35,1.682-.817V39.415c-.6.285-.935.471-.94.474l-1.12.636V36.519l.378-.215A35.991,35.991,0,0,1,49.29,32.412a37.254,37.254,0,0,1,16.484,3.869l.42.205v3.947l-1.079-.523c-.323-.157-.648-.311-.982-.462v9.93c.567.245,1.1.494,1.64.754l.42.205v.609h2.328v1.165h2.334Z" transform="translate(1507.19 1408.153)" fill="#fff"/><path d="M261.16,363.345v9.992a38.334,38.334,0,0,1,11.8-1.879,36.871,36.871,0,0,1,11.714,1.912l0-9.992a35.444,35.444,0,0,0-11.719-2A36.813,36.813,0,0,0,261.16,363.345Z" transform="translate(1283.517 1082.969)" fill="#fff"/></g></svg>