<svg xmlns="http://www.w3.org/2000/svg" width="98.171" height="97.885" viewBox="0 0 98.171 97.885"><g transform="translate(-910.915 -28.581)"><g transform="translate(-596.78 -1379.572)"><path d="M261.16,363.345v9.992a38.334,38.334,0,0,1,11.8-1.879,36.871,36.871,0,0,1,11.714,1.912l0-9.992a35.444,35.444,0,0,0-11.719-2A36.813,36.813,0,0,0,261.16,363.345Z" transform="translate(1283.517 1082.969)" fill="#fff"/><path d="M49.255,0A36.665,36.665,0,1,0,85.921,36.666,36.665,36.665,0,0,0,49.255,0ZM37.909,16.081a2.22,2.22,0,0,1,1.667-.993c.579-.943,2.836-3.789,9.067-3.973V11.1h1.226v.01c6.231.184,8.489,3.031,9.067,3.973a2.23,2.23,0,0,1,1.668.993,1.173,1.173,0,0,1-.087,1.1V32.988l-.747-.22c-.459-.135-.958-.27-1.525-.412l-.442-.11V21.128a1.286,1.286,0,0,0-.111-.656,1.231,1.231,0,0,0-.575.335,3.348,3.348,0,0,0-1.156,2.116v8.928l-.677-.111c-.522-.086-1.035-.159-1.525-.219l-.512-.062V22.916c0-.731,0-2.4-3.394-2.544l-.594-.009h-.485c-3.506.113-3.506,1.809-3.506,2.548v8.546l-.514.062c-.508.061-1.022.133-1.525.214l-.674.118V22.916A3.348,3.348,0,0,0,41.4,20.8a1.232,1.232,0,0,0-.576-.335,1.293,1.293,0,0,0-.11.656V32.227l-.446.107c-.513.125-1.027.26-1.525.4l-.744.218V17.181A1.171,1.171,0,0,1,37.909,16.081ZM70.854,55.945H66.618l-.182-.114A31.969,31.969,0,0,0,49.3,50.666a31.6,31.6,0,0,0-17.221,5.144l-.193.133h-4.23V52.116h2.331V50.951H32.3v-.576l.378-.216c.028-.015.617-.35,1.682-.817V39.415c-.6.285-.935.471-.94.474l-1.12.636V36.519l.378-.215A35.991,35.991,0,0,1,49.29,32.412a37.254,37.254,0,0,1,16.484,3.869l.42.205v3.947l-1.079-.523c-.323-.157-.648-.311-.982-.462v9.93c.567.245,1.1.494,1.64.754l.42.205v.609h2.328v1.165h2.334Z" transform="translate(1507.19 1408.153)" fill="#fff"/><path d="M261.16,363.345v9.992a38.334,38.334,0,0,1,11.8-1.879,36.871,36.871,0,0,1,11.714,1.912l0-9.992a35.444,35.444,0,0,0-11.719-2A36.813,36.813,0,0,0,261.16,363.345Z" transform="translate(1283.517 1082.969)" fill="#fff"/></g><g transform="translate(910.915 -263.606)"><path d="M0,809.35H7.619v2.479H2.66v4.08H8.338v2.479H2.66v2.28h6.8v2.479H0Z" transform="translate(0 -435.473)" fill="#fff"/><path d="M102.652,823.125v-2.359a6.807,6.807,0,0,1-3.179-1.11,6.379,6.379,0,0,1-2.149-2.44,7.937,7.937,0,0,1,.17-7.157,6.741,6.741,0,0,1,2.608-2.56,8.436,8.436,0,0,1,7.7,0,6.741,6.741,0,0,1,2.608,2.56,7.937,7.937,0,0,1,.17,7.157,6.379,6.379,0,0,1-2.149,2.44,6.807,6.807,0,0,1-3.179,1.11v2.359Zm2.6-7.458v2.7a4.1,4.1,0,0,0,2.45-1.556,4.867,4.867,0,0,0,.889-2.989,4.916,4.916,0,0,0-.59-2.449,4.313,4.313,0,0,0-1.629-1.65,5.157,5.157,0,0,0-4.829,0,4.286,4.286,0,0,0-1.64,1.65,4.916,4.916,0,0,0-.59,2.449,4.85,4.85,0,0,0,.891,2.989,4.09,4.09,0,0,0,2.449,1.556v-2.7Z" transform="translate(-84.037 -433.053)" fill="#fff"/><path d="M242.62,809.35h2.659v8.777q0,2.82,2.359,2.82t2.359-2.82V809.35h2.66v8.9a5.468,5.468,0,0,1-1.281,3.91,5.854,5.854,0,0,1-7.477,0,5.5,5.5,0,0,1-1.279-3.91Z" transform="translate(-211.168 -435.473)" fill="#fff"/><path d="M356.13,809.35h2.66v13.8h-2.66Z" transform="translate(-309.964 -435.473)" fill="#fff"/><path d="M413.66,807.34h.2l7.377,6.078V807.6H423.9v13.8h-2.659v-4.719l-4.918-4.1v8.815h-2.66Z" transform="translate(-360.036 -433.724)" fill="#fff"/><path d="M526.428,817.587a7.411,7.411,0,0,1-.939-3.759,7.5,7.5,0,0,1,.939-3.768,6.749,6.749,0,0,1,2.609-2.56,8.434,8.434,0,0,1,7.7,0,6.741,6.741,0,0,1,2.609,2.56,8.007,8.007,0,0,1,0,7.528,6.719,6.719,0,0,1-2.609,2.569,8.434,8.434,0,0,1-7.7,0A6.727,6.727,0,0,1,526.428,817.587Zm10.508-1.32a5.359,5.359,0,0,0,0-4.888,4.322,4.322,0,0,0-1.63-1.65,5.159,5.159,0,0,0-4.83,0,4.291,4.291,0,0,0-1.639,1.65,5.359,5.359,0,0,0,0,4.888,4.278,4.278,0,0,0,1.644,1.659,5.159,5.159,0,0,0,4.83,0A4.3,4.3,0,0,0,536.937,816.268Z" transform="translate(-457.369 -433.053)" fill="#fff"/><path d="M670.873,823.145h-3.179l-3.378-5.2-3.36,5.2H658l4.658-7.157-4.321-6.638h3.138l3.006,4.678,2.9-4.678h3l-4.226,6.558Z" transform="translate(-572.702 -435.473)" fill="#fff"/></g></g></svg>