<svg xmlns="http://www.w3.org/2000/svg" width="1842.276" height="310.679" viewBox="0 0 1842.276 310.679"><g fill="#fff"><path d="M0 6.763h142.969v46.513h-93.05v76.557h106.552v46.513H49.919v42.791h127.667v46.513H0z"/><path d="M349.331 310.679v-44.275a127.741 127.741 0 0 1-59.65-20.824 119.715 119.715 0 0 1-40.334-45.783 137.836 137.836 0 0 1-14.45-63.59q0-40.14 17.637-70.718a126.5 126.5 0 0 1 48.946-48.046Q332.816 0 373.731 0t72.227 17.442a126.5 126.5 0 0 1 48.946 48.046q17.661 30.579 17.637 70.718a137.837 137.837 0 0 1-14.45 63.59 119.715 119.715 0 0 1-40.334 45.783 127.746 127.746 0 0 1-59.649 20.824v44.275zM398.11 170.73v50.649a76.875 76.875 0 0 0 45.978-29.192q16.664-22.333 16.688-56.1a92.251 92.251 0 0 0-11.069-45.957 80.94 80.94 0 0 0-30.576-30.967 96.771 96.771 0 0 0-90.618 0 80.424 80.424 0 0 0-30.776 30.967 92.25 92.25 0 0 0-11.069 45.954q0 33.765 16.713 56.1a76.749 76.749 0 0 0 45.95 29.191V170.73z"/><path d="M590.219 6.763h49.895v164.718q0 52.911 44.275 52.911t44.275-52.911V6.763h49.919v167q0 48.045-24.035 73.37t-70.159 25.324q-46.221 0-70.159-25.324t-24.011-73.37z"/><path d="M866.354 6.763h49.919V265.65h-49.919z"/><path d="M1006.307 1.873h3.771l138.444 114.069V6.763h49.894V265.65h-49.894V177.1l-92.3-76.922v165.423h-49.915z"/><path d="M1295.965 206.754q-17.637-30.749-17.613-70.548t17.613-70.718a126.639 126.639 0 0 1 48.97-48.046Q1376.295 0 1417.165 0t72.227 17.442a126.5 126.5 0 0 1 48.97 48.046q17.637 30.579 17.637 70.718t-17.634 70.548a126.09 126.09 0 0 1-48.97 48.216q-31.309 17.442-72.227 17.442t-72.227-17.442a126.232 126.232 0 0 1-48.976-48.216zm197.2-24.764a100.568 100.568 0 0 0 0-91.737 81.117 81.117 0 0 0-30.579-30.968 96.821 96.821 0 0 0-90.642 0 80.521 80.521 0 0 0-30.749 30.968 100.568 100.568 0 0 0 0 91.737 80.278 80.278 0 0 0 30.847 31.139 96.82 96.82 0 0 0 90.642 0 80.718 80.718 0 0 0 30.481-31.139z"/><path d="M1842.276 265.65h-59.65l-63.4-97.551-63.055 97.551h-55.461l87.406-134.309-81.081-124.578h58.9l56.414 87.8 54.395-87.8h56.292l-79.31 123.07z"/></g></svg>