<svg xmlns="http://www.w3.org/2000/svg" width="94.952" height="180.034" viewBox="0 0 94.952 180.034"><g transform="translate(94.952) rotate(90)"><path d="M414.68,391.085a6.889,6.889,0,0,0-1.871-1.347,3.154,3.154,0,0,1-.451-.219c-8.31-3.9-30.791-3.487-42.216-1.692-2.927.46-4.874,2.142-5.207,4.5a6.081,6.081,0,0,0,3.331,6.015c.848-.062,1.714-.092,2.6-.077,21.169.389,34.616,2.5,41.624,6.669C413.025,404.27,419.4,396.171,414.68,391.085Z" transform="translate(-295.495 -352.066)" fill="none"/><path d="M373.532,408.294a3.173,3.173,0,0,1-.25-.845c-.078-.108-.159-.214-.248-.321-2.963-3.506-11.859-6.083-22.135-6.414-6.289-.2-12.718-.3-17.134.336-3.635.526-5.057,1.429-5.172,2.043-.252,1.359-.027,1.784.248,2.132,1.25,1.585,6.564,4.408,28.1,5.508a3.178,3.178,0,0,1-.324,6.348c-24.348-1.244-30.226-4.7-32.765-7.918a8.713,8.713,0,0,1-1.507-7.229,7.18,7.18,0,0,1,3.555-5.017c-3.318-5.025-2.7-8.935-1.484-11.415a12.984,12.984,0,0,1,6.834-5.911,11.816,11.816,0,0,1-2.232-8.619c.735-5.2,4.763-8.984,10.513-9.888,1.979-.311,4.595-.61,7.579-.851a34.9,34.9,0,0,0-7.8-3.12,3.178,3.178,0,1,1,1.429-6.193,41.2,41.2,0,0,1,15.163,7.57,3.131,3.131,0,0,1,.91,1.249c2.709-.061,5.488-.058,8.221.033,8.339.281,14.645,1.272,19.065,3,2.854-1.791,9.542-6.592,7.824-11.328-.54-1.486-1.552-2.4-10.356-1.592-5.7.523-11.588,1.063-15.421-2.581-6.289-5.979-14.413-8.143-20.512-8.877a4.569,4.569,0,0,1-.821-.093,45.354,45.354,0,0,0-7.457-.177c-12.433.858-23.681,4.775-27.952,8.025-8.554,6.509-15.31,11.649-14.621,29.122.511,12.972,1.885,30.665,7.886,34.523,5.644,3.63,24.448,10.408,44.348,10.408,17.465,0,25.824-.967,27.027-9.8a4.047,4.047,0,0,0-.036-1.361A3.178,3.178,0,0,1,373.532,408.294Z" transform="translate(-265.871 -331.6)" fill="none"/><path d="M272.653,383.813c-3.994.4-10.389,1.034-14.852,1.387-1.333,6.313-4.457,25.141,1.79,40.225,3.68-.016,11.408-.033,16.768.054-2.44-6.527-3.791-16.364-4.353-30.635A51.4,51.4,0,0,1,272.653,383.813Z" transform="translate(-249.444 -350.928)" fill="none"/><path d="M366.759,417.853a21.376,21.376,0,0,0-2.7.122c-.069.009-.138.018-.208.023-3.908.464-7.107,1.989-8.1,4-.977,1.99.529,4.54,1.964,6.33.055.069.092.146.142.218,4.918-.8,11.4-.73,18.878-.489,4.612.148,19.944,1.191,26.442,8.289,2.669-1.838,6.343-5.349,4.729-10.051C407.114,423.973,401.505,418.492,366.759,417.853Z" transform="translate(-291.508 -365.301)" fill="none"/><path d="M450.467,338.184q-2.867-.056-5.792-.12c-10.849-.246-20.981-.189-29.208-.062a35.181,35.181,0,0,1,6.039,4.6c1.745,1.658,6.376,1.234,10.462.859,6.393-.587,14.347-1.317,16.911,5.753a10.885,10.885,0,0,1,.665,3.907c9.8.042,35.325-.015,40.5-5.354.507-.523.5-.841.489-1.012C490.246,338.963,470.023,338.567,450.467,338.184Z" transform="translate(-316.853 -331.537)" fill="none"/><path d="M378.513,327.184q-2.857-.056-5.773-.119c-16.843-.384-31.936-.04-40.954.165-3.148.071-6.127.138-6.885.106-.055-.009-.11-.007-.165-.013a51.275,51.275,0,0,0-8.915-.251c-12.387.854-25.284,4.682-31.362,9.307-5.665,4.309-11.448,8.72-14.648,16.822-3.6.37-14.508,1.477-19.448,1.791l-2.275.144-.592,2.2c-.3,1.131-7.341,27.947,2.5,48.6l.868,1.823,2.02-.013c.168,0,16.811-.1,22.319.138l.071,0a12.9,12.9,0,0,0,2.862,2.533c3.938,2.532,10.93,5.3,18.7,7.4a113.739,113.739,0,0,0,29.081,4.014c7.416,0,15.085,0,21.064-1.747,7.2-2.1,11.322-6.662,12.26-13.551a10.449,10.449,0,0,0,0-2.814c4.981-3.179,10.827-9.518,7.95-17.9a9.26,9.26,0,0,0-.8-1.714c.066-.065.131-.131.192-.2,3.718-4.38,8.9-14.569,2.254-22.076a25.273,25.273,0,0,0,6.68-7.019l.916,0q1.5.008,2.986.008c19.094,0,37.059-1.042,43.112-7.29a7.623,7.623,0,0,0,2.276-5.666C424.3,328.081,403.081,327.665,378.513,327.184Zm-123.592,74.2c-6.246-15.085-3.123-33.912-1.79-40.225,4.462-.353,10.857-.982,14.852-1.387a51.4,51.4,0,0,0-.647,11.031c.562,14.271,1.913,24.108,4.353,30.635C266.329,401.356,258.6,401.372,254.921,401.389Zm98.026,4.3c-1.2,8.834-9.562,9.8-27.027,9.8-19.9,0-38.7-6.778-44.348-10.408-6-3.858-7.375-21.55-7.887-34.523-.689-17.472,6.067-22.613,14.621-29.122,4.271-3.25,15.519-7.166,27.952-8.025a45.354,45.354,0,0,1,7.457.177,4.559,4.559,0,0,0,.821.093c6.1.734,14.223,2.9,20.512,8.877,3.833,3.644,9.723,3.1,15.421,2.581,8.8-.808,9.817.106,10.356,1.592,1.718,4.736-4.97,9.537-7.824,11.328-4.42-1.725-10.726-2.715-19.065-3-2.733-.091-5.512-.094-8.221-.033a3.131,3.131,0,0,0-.91-1.249,41.2,41.2,0,0,0-15.163-7.57,3.178,3.178,0,1,0-1.429,6.193,34.9,34.9,0,0,1,7.8,3.12c-2.985.241-5.6.54-7.579.851-5.75.9-9.779,4.692-10.513,9.888a11.816,11.816,0,0,0,2.232,8.619,12.984,12.984,0,0,0-6.834,5.911c-1.218,2.48-1.834,6.39,1.484,11.415a7.18,7.18,0,0,0-3.555,5.017,8.713,8.713,0,0,0,1.507,7.229c2.539,3.217,8.417,6.673,32.765,7.918a3.178,3.178,0,0,0,.324-6.348c-21.535-1.1-26.849-3.923-28.1-5.508-.274-.348-.5-.773-.248-2.132.114-.614,1.537-1.517,5.172-2.043,4.417-.638,10.846-.54,17.134-.336,10.276.331,19.172,2.909,22.135,6.414.09.107.17.213.248.321a3.121,3.121,0,0,0,.726,1.586A4.045,4.045,0,0,1,352.948,405.688Zm-32.805-32.6c-.884-.015-1.749.015-2.6.077a6.081,6.081,0,0,1-3.331-6.015c.333-2.358,2.28-4.04,5.207-4.5,11.426-1.8,33.907-2.212,42.216,1.692a3.164,3.164,0,0,0,.451.219,6.889,6.889,0,0,1,1.871,1.347c4.716,5.086-1.655,13.185-2.193,13.849C354.758,375.59,341.312,373.48,320.142,373.091Zm36.307,24.852c-6.5-7.1-21.83-8.14-26.442-8.289-7.482-.241-13.96-.314-18.878.489-.049-.072-.086-.149-.142-.218-1.436-1.79-2.942-4.34-1.964-6.33.99-2.016,4.189-3.541,8.1-4,.07,0,.139-.013.208-.023a21.4,21.4,0,0,1,2.7-.122c34.746.639,40.355,6.119,41.153,8.446C362.793,392.594,359.119,396.1,356.45,397.942Zm61.514-54.826c-5.174,5.339-30.694,5.4-40.5,5.354a10.888,10.888,0,0,0-.665-3.907c-2.565-7.07-10.519-6.34-16.911-5.753-4.086.376-8.717.8-10.462-.858a35.182,35.182,0,0,0-6.039-4.6c8.227-.127,18.36-.184,29.208.062q2.921.067,5.792.12c19.557.383,39.779.779,40.064,8.567C418.459,342.276,418.471,342.594,417.964,343.117Z" transform="translate(-244.775 -326.892)" fill="#333"/></g></svg>