<svg xmlns="http://www.w3.org/2000/svg" width="121.808" height="121.809" viewBox="0 0 121.808 121.809"><path d="M464.088,797.465H408.8l52.582-17.085-.55-1.691-52.586,17.086,44.729-32.5-1.045-1.439-44.732,32.5,32.5-44.729-1.439-1.045-32.5,44.732,17.085-52.582-1.691-.549-17.086,52.585V737.461h-1.778v55.292L385.2,740.171l-1.691.55,17.086,52.586-32.5-44.729-1.439,1.045,32.5,44.732-44.729-32.5-1.045,1.439,44.732,32.5L345.532,778.71l-.55,1.691,52.586,17.086H342.279v1.778h55.292l-52.582,17.085.55,1.691,52.586-17.086-44.729,32.5,1.045,1.439,44.732-32.5-32.5,44.729,1.439,1.045,32.5-44.732-17.085,52.582,1.691.55,17.086-52.586V859.27h1.778V803.978l17.085,52.582,1.691-.55-17.086-52.586,32.5,44.729,1.439-1.045-32.5-44.732,44.729,32.5,1.045-1.439-44.732-32.5,52.582,17.085.55-1.691L408.8,799.243h55.288Z" transform="translate(-342.279 -737.461)" fill="#291812"/></svg>