<svg xmlns="http://www.w3.org/2000/svg" width="203.955" height="203.955" viewBox="0 0 203.955 203.955"><path d="M546.234,837.931h-92.58L541.7,809.324l-.92-2.832L452.729,835.1l74.894-54.414-1.75-2.409-74.9,54.417L505.387,757.8l-2.409-1.75-54.417,74.9,28.607-88.043-2.832-.92-28.609,88.048V737.461h-2.978v92.58L414.142,742l-2.832.92,28.609,88.049-54.414-74.894-2.409,1.75,54.417,74.9L362.62,778.308l-1.75,2.409,74.9,54.417-88.043-28.607-.92,2.832,88.049,28.609H342.279v2.978h92.58l-88.043,28.607.92,2.832,88.049-28.609L360.891,898.19l1.75,2.409,74.9-54.417-54.414,74.894,2.409,1.75,54.417-74.9L411.346,935.97l2.832.92,28.609-88.049v92.574h2.978v-92.58l28.607,88.043,2.832-.92L448.594,847.91,503.008,922.8l2.409-1.75L451,846.155l74.894,54.414,1.75-2.409-74.9-54.417,88.043,28.607.92-2.832-88.048-28.609h92.574Z" transform="translate(-342.279 -737.461)"/></svg>