<svg xmlns="http://www.w3.org/2000/svg" width="212.233" height="212.199" viewBox="0 0 212.233 212.199"><g transform="translate(-720.768 -416.614)"><path d="M774.361,482.732a3.172,3.172,0,0,1,.927,2.15,3.308,3.308,0,0,1-.926,2.192,3.039,3.039,0,0,1-2.437,1.125,4.408,4.408,0,0,1-2.815-1.234l-.625-.545a4.906,4.906,0,0,1-1.311-1.715,3.206,3.206,0,0,1-.255-1.838,3.386,3.386,0,0,1,.832-1.7,3.118,3.118,0,0,1,2.027-1.156,3.212,3.212,0,0,1,2.235.669l-.752.861a2.481,2.481,0,0,0-1.551-.5,1.947,1.947,0,0,0-1.259.737,2.037,2.037,0,0,0-.516,1.818,3.7,3.7,0,0,0,1.322,1.975l.63.55a3.8,3.8,0,0,0,2.07,1.028,1.894,1.894,0,0,0,1.7-.69,2.188,2.188,0,0,0,.633-1.378,2.388,2.388,0,0,0-.684-1.49Z" transform="translate(-20.681 -28.428)"/><path d="M785.771,473.01l-.82.8-2.778-2.86-3.119,3.029,2.777,2.861-.816.792-6.009-6.188.816-.793,2.583,2.66,3.12-3.029-2.583-2.661.82-.8Z" transform="translate(-24.326 -22.518)"/><path d="M793.808,461.431l-2.876,2.388,1.953,2.352,3.341-2.774.594.716-4.216,3.5-5.51-6.636,4.17-3.463.595.716-3.3,2.736,1.775,2.138,2.876-2.388Z" transform="translate(-29.747 -18.344)"/><path d="M806.936,454.335a3.174,3.174,0,0,1,.4,2.306,3.309,3.309,0,0,1-1.41,1.917,3.038,3.038,0,0,1-2.631.528,4.409,4.409,0,0,1-2.451-1.854l-.481-.676a4.915,4.915,0,0,1-.877-1.972,3.208,3.208,0,0,1,.179-1.848,3.388,3.388,0,0,1,1.2-1.457,3.116,3.116,0,0,1,2.24-.654,3.21,3.21,0,0,1,2.018,1.169l-.931.663a2.475,2.475,0,0,0-1.392-.847,1.944,1.944,0,0,0-1.4.425,2.036,2.036,0,0,0-.924,1.648,3.7,3.7,0,0,0,.827,2.228l.485.681a3.8,3.8,0,0,0,1.775,1.481,1.9,1.9,0,0,0,1.818-.276,2.189,2.189,0,0,0,.935-1.193,2.388,2.388,0,0,0-.32-1.609Z" transform="translate(-35.279 -15.245)"/><path d="M814.244,446.831l-.34,1.482,1.5,2.5-.975.586L809.987,444l.974-.586,2.2,3.656,1.088-5.63,1.179-.708-.948,5.014,5.619,2.242-1.168.7Z" transform="translate(-40.015 -10.819)"/><path d="M836.546,436.505a5.334,5.334,0,0,1,.536,2.189,3.231,3.231,0,0,1-.5,1.815,3.335,3.335,0,0,1-5.009.726,5.125,5.125,0,0,1-1.3-1.765l-.26-.565a5.275,5.275,0,0,1-.524-2.178,3.2,3.2,0,0,1,1.936-3.054,3.342,3.342,0,0,1,1.87-.308,3.229,3.229,0,0,1,1.712.811,5.374,5.374,0,0,1,1.311,1.833Zm-1.26-.034a3.871,3.871,0,0,0-1.543-1.883,2.035,2.035,0,0,0-1.909-.026,2.012,2.012,0,0,0-1.2,1.454,3.787,3.787,0,0,0,.372,2.336l.265.576a3.876,3.876,0,0,0,1.543,1.863,2.19,2.19,0,0,0,3.134-1.388,3.848,3.848,0,0,0-.4-2.351Z" transform="translate(-48.762 -7.501)"/><path d="M848.148,426.252l2,5.512a2.751,2.751,0,0,1-.039,2.139,3.091,3.091,0,0,1-1.643,1.523l-.28.115a3.23,3.23,0,0,1-2.382.053,2.736,2.736,0,0,1-1.521-1.685l-2.007-5.523,1.058-.384,2,5.49a1.8,1.8,0,0,0,2.54,1.176,2,2,0,0,0,1.213-.989,1.972,1.972,0,0,0-.014-1.539l-2-5.5Z" transform="translate(-54.498 -4.323)"/><path d="M862.355,423l-2.671.745,2.068,7.413-1.09.3-2.068-7.413-2.665.743-.25-.9,6.426-1.792Z" transform="translate(-60.508 -2.462)"/><path d="M880.664,419.438l-2.731.479,1.328,7.58-1.115.2-1.328-7.58-2.725.478-.161-.917,6.571-1.151Z" transform="translate(-68.694 -0.856)"/><path d="M896.512,425.552l-1.138.107-.373-3.97-4.329.406.372,3.97-1.132.106-.806-8.589,1.133-.106.346,3.692,4.329-.406-.346-3.692,1.138-.107Z" transform="translate(-75.5 -0.157)"/><path d="M910.606,421.261l-3.738.061.05,3.056,4.342-.071.015.93-5.479.089-.14-8.625,5.42-.088.015.93-4.283.069.045,2.778,3.738-.061Z" transform="translate(-82.922 0)"/><path d="M929.927,425.081a2.627,2.627,0,0,1-1.3.827,4.942,4.942,0,0,1-1.848.148,3.547,3.547,0,0,1-1.821-.659,3.3,3.3,0,0,1-1.135-1.513,4.854,4.854,0,0,1-.271-2.148l.067-.75a4.538,4.538,0,0,1,1.173-2.929,3.171,3.171,0,0,1,2.642-.842,3.273,3.273,0,0,1,2.1.88,3,3,0,0,1,.83,2.039l-1.133-.1a1.88,1.88,0,0,0-1.878-1.891,2.012,2.012,0,0,0-1.8.647,3.927,3.927,0,0,0-.8,2.265l-.062.7a3.677,3.677,0,0,0,.456,2.359,2.152,2.152,0,0,0,1.712,1.012,3.961,3.961,0,0,0,1.128-.042,1.732,1.732,0,0,0,.833-.406l.171-1.925-1.989-.176.082-.927,3.116.277Z" transform="translate(-90.939 -0.262)"/><path d="M942.472,425.965l-3.562-.611-1.182,2.087-1.156-.2,4.705-7.945.981.169,1.794,9.06-1.15-.2Zm-3.066-1.47,2.891.5-.766-4.225Z" transform="translate(-96.788 -1.204)"/><path d="M953.243,429.069l3.967.983-.223.9-5.078-1.258,2.074-8.373,1.11.275Z" transform="translate(-103.666 -2.112)"/><path d="M964.49,432.177l3.894,1.243-.283.886-4.983-1.591,2.622-8.217,1.09.347Z" transform="translate(-108.694 -3.536)"/><path d="M980.135,434.588l-3.476-1.376-1.125,2.842,4.038,1.6-.343.865-5.1-2.017,3.176-8.02,5.04,2-.342.865-3.982-1.576L977,432.347l3.476,1.376Z" transform="translate(-113.634 -5.322)"/><path d="M989.81,439.522l-1.825-.88-1.516,3.143-1.03-.5,3.747-7.769,2.572,1.24a3.38,3.38,0,0,1,1.732,1.572,2.39,2.39,0,0,1-.132,2.081,2.324,2.324,0,0,1-1,1.075,2.6,2.6,0,0,1-1.48.28l.234,4.178-.031.064-1.1-.53Zm-1.421-1.718,1.574.759a1.971,1.971,0,0,0,1.4.19,1.485,1.485,0,0,0,.962-.841,1.563,1.563,0,0,0,.1-1.314,2.018,2.018,0,0,0-1.052-.988l-1.569-.757Z" transform="translate(-118.705 -7.582)"/><path d="M1002.77,444.382l4.107-2.636,1.121.643-5.272,3.211-1.6,2.791-.987-.566,1.6-2.79.113-6.172,1.131.649Z" transform="translate(-125.298 -9.979)"/><path d="M1028.682,466.364a3.175,3.175,0,0,1-2.121.991,3.312,3.312,0,0,1-2.219-.859,3.041,3.041,0,0,1-1.2-2.4,4.409,4.409,0,0,1,1.149-2.851l.526-.641a4.916,4.916,0,0,1,1.674-1.362,3.207,3.207,0,0,1,1.83-.31,3.384,3.384,0,0,1,1.721.78,3.117,3.117,0,0,1,1.217,1.991,3.21,3.21,0,0,1-.6,2.254l-.884-.725a2.476,2.476,0,0,0,.453-1.565,1.944,1.944,0,0,0-.775-1.237,2.036,2.036,0,0,0-1.833-.461,3.7,3.7,0,0,0-1.935,1.381l-.531.646a3.81,3.81,0,0,0-.965,2.1,1.9,1.9,0,0,0,.742,1.683,2.186,2.186,0,0,0,1.4.591,2.383,2.383,0,0,0,1.469-.73Z" transform="translate(-135.615 -18.967)"/><path d="M1036.674,477.534l-.821-.8,2.776-2.862-3.121-3.027-2.776,2.862-.817-.791,6.006-6.192.816.792-2.582,2.662,3.121,3.028,2.582-2.662.821.8Z" transform="translate(-139.549 -22.476)"/><path d="M1049.051,485.189l-2.473-2.8-2.292,2.023,2.873,3.256-.7.615-3.626-4.109,6.467-5.707,3.587,4.065-.7.615-2.834-3.212-2.083,1.838,2.473,2.8Z" transform="translate(-144.447 -27.74)"/><path d="M1057.742,498.086a3.175,3.175,0,0,1-2.293.472,3.312,3.312,0,0,1-1.958-1.352,3.037,3.037,0,0,1-.608-2.614,4.409,4.409,0,0,1,1.78-2.507l.661-.5a4.91,4.91,0,0,1,1.944-.936,3.208,3.208,0,0,1,1.853.124,3.387,3.387,0,0,1,1.492,1.158,3.118,3.118,0,0,1,.721,2.219,3.213,3.213,0,0,1-1.109,2.053l-.691-.911a2.477,2.477,0,0,0,.8-1.417,1.944,1.944,0,0,0-.467-1.382,2.035,2.035,0,0,0-1.675-.874,3.7,3.7,0,0,0-2.2.893l-.666.506a3.808,3.808,0,0,0-1.426,1.818,1.894,1.894,0,0,0,.331,1.809,2.186,2.186,0,0,0,1.22.9,2.383,2.383,0,0,0,1.6-.368Z" transform="translate(-148.917 -33.168)"/><path d="M1063.771,505.163l-1.492-.294-2.452,1.576-.615-.957,7.255-4.665.615.957-3.587,2.306,5.66.918.744,1.156-5.04-.8-2.071,5.684-.737-1.146Z" transform="translate(-151.792 -37.768)"/><path d="M1076.336,527.127a5.334,5.334,0,0,1-2.171.6,3.232,3.232,0,0,1-1.83-.441,3.334,3.334,0,0,1-.879-4.984,5.126,5.126,0,0,1,1.724-1.356l.558-.277a5.263,5.263,0,0,1,2.161-.59,3.2,3.2,0,0,1,3.111,1.841,3.343,3.343,0,0,1,.365,1.86,3.222,3.222,0,0,1-.758,1.736,5.353,5.353,0,0,1-1.792,1.367Zm-.005-1.261a3.865,3.865,0,0,0,1.835-1.6,2.034,2.034,0,0,0-.031-1.909,2.011,2.011,0,0,0-1.49-1.155,3.791,3.791,0,0,0-2.323.443l-.568.282a3.868,3.868,0,0,0-1.815,1.6,2.191,2.191,0,0,0,1.482,3.091,3.853,3.853,0,0,0,2.338-.467Z" transform="translate(-156.946 -46.404)"/><path d="M1086.284,538.41l-5.449,2.171a2.751,2.751,0,0,1-2.139.025,3.088,3.088,0,0,1-1.572-1.595l-.123-.277a3.224,3.224,0,0,1-.125-2.38,2.733,2.733,0,0,1,1.638-1.571l5.46-2.175.416,1.046-5.427,2.161a1.991,1.991,0,1,0,1.465,3.7l5.433-2.164Z" transform="translate(-159.636 -52.024)"/><path d="M1090.127,552.493l-.826-2.646-7.346,2.293-.338-1.08,7.347-2.293-.824-2.641.888-.277,1.987,6.368Z" transform="translate(-161.84 -57.962)"/><path d="M1094.375,570.669l-.561-2.716-7.536,1.557-.229-1.108,7.536-1.557-.56-2.71.912-.189,1.349,6.533Z" transform="translate(-163.828 -66.079)"/><path d="M1088.631,586.681l-.141-1.134,3.956-.492-.537-4.316-3.957.492-.14-1.129,8.56-1.064.141,1.129-3.681.457.537,4.315,3.681-.458.14,1.135Z" transform="translate(-164.619 -72.847)"/><path d="M1093.726,600.615l-.172-3.734-3.054.141.2,4.339-.929.042-.252-5.474,8.617-.4.249,5.415-.929.043-.2-4.279-2.776.128.172,3.735Z" transform="translate(-165.384 -80.244)"/><path d="M1090.433,620.172a2.627,2.627,0,0,1-.866-1.276,4.962,4.962,0,0,1-.2-1.843,3.553,3.553,0,0,1,.6-1.84,3.3,3.3,0,0,1,1.479-1.18,4.868,4.868,0,0,1,2.138-.335l.752.044a4.535,4.535,0,0,1,2.963,1.085,3.171,3.171,0,0,1,.921,2.615,3.275,3.275,0,0,1-.816,2.13,3.007,3.007,0,0,1-2.014.891l.066-1.136a1.88,1.88,0,0,0,1.834-1.934,2.014,2.014,0,0,0-.7-1.777,3.928,3.928,0,0,0-2.289-.731l-.7-.041a3.677,3.677,0,0,0-2.344.527,2.149,2.149,0,0,0-.96,1.742,3.957,3.957,0,0,0,.075,1.126,1.731,1.731,0,0,0,.432.821l1.929.113.117-1.993.928.054-.183,3.123Z" transform="translate(-165.309 -88.389)"/><path d="M1089.741,632.82l.5-3.579-2.122-1.118.163-1.161,8.083,4.462-.138.986-9,2.068.162-1.156Zm1.376-3.109-.408,2.9,4.2-.893Z" transform="translate(-164.357 -94.341)"/><path d="M1086.581,643.679l-.861,4-.909-.2,1.1-5.114,8.432,1.819-.241,1.117Z" transform="translate(-163.272 -101.249)"/><path d="M1083.667,655.024l-1.124,3.931-.895-.256,1.438-5.03,8.294,2.371-.314,1.1Z" transform="translate(-161.855 -106.319)"/><path d="M1081.554,670.719l1.269-3.516-2.875-1.038-1.474,4.084-.875-.315,1.861-5.154,8.113,2.929-1.841,5.1-.875-.315,1.454-4.029-2.613-.944-1.27,3.516Z" transform="translate(-160.038 -111.302)"/><path d="M1076.555,680.545l.824-1.851-3.187-1.42.465-1.045,7.88,3.51-1.162,2.608a3.381,3.381,0,0,1-1.519,1.779,2.387,2.387,0,0,1-2.084-.068,2.323,2.323,0,0,1-1.105-.969,2.6,2.6,0,0,1-.324-1.471l-4.169.361-.065-.029.5-1.115Zm1.674-1.472-.711,1.6a1.971,1.971,0,0,0-.148,1.41,1.485,1.485,0,0,0,.87.935,1.56,1.56,0,0,0,1.316.065,2.022,2.022,0,0,0,.957-1.082l.709-1.591Z" transform="translate(-157.576 -116.437)"/><path d="M1072.76,693.67l2.759,4.026-.609,1.139-3.369-5.172-2.838-1.516.536-1,2.838,1.516,6.172-.075-.614,1.149Z" transform="translate(-156.048 -123.127)"/><path d="M1052.5,720.14a3.176,3.176,0,0,1-1.055-2.09,3.31,3.31,0,0,1,.792-2.244,3.039,3.039,0,0,1,2.364-1.27,4.408,4.408,0,0,1,2.884,1.063l.657.507a4.912,4.912,0,0,1,1.412,1.632,3.2,3.2,0,0,1,.365,1.82,3.386,3.386,0,0,1-.727,1.743,3.118,3.118,0,0,1-1.954,1.276,3.215,3.215,0,0,1-2.272-.533l.7-.905a2.478,2.478,0,0,0,1.578.406,1.943,1.943,0,0,0,1.212-.812,2.033,2.033,0,0,0,.406-1.845,3.7,3.7,0,0,0-1.438-1.892l-.662-.511a3.8,3.8,0,0,0-2.128-.9,1.9,1.9,0,0,0-1.66.792,2.186,2.186,0,0,0-.548,1.414,2.382,2.382,0,0,0,.773,1.446Z" transform="translate(-148.306 -133.617)"/><path d="M1039.693,728.5l.771-.844,2.944,2.689,2.932-3.21-2.944-2.689.767-.839,6.369,5.817-.767.84-2.739-2.5-2.932,3.211,2.738,2.5-.771.844Z" transform="translate(-143.038 -137.684)"/><path d="M1033.218,741.062l2.727-2.557-2.091-2.23-3.168,2.97-.636-.679,4-3.749,5.9,6.293-3.955,3.708-.636-.678,3.125-2.93-1.9-2.027-2.728,2.557Z" transform="translate(-138.713 -142.714)"/><path d="M1021.994,750.131a3.174,3.174,0,0,1-.541-2.278,3.313,3.313,0,0,1,1.292-2,3.04,3.04,0,0,1,2.595-.685,4.409,4.409,0,0,1,2.559,1.7l.521.646a4.911,4.911,0,0,1,.994,1.915,3.206,3.206,0,0,1-.067,1.855,3.388,3.388,0,0,1-1.113,1.527,3.118,3.118,0,0,1-2.2.787,3.211,3.211,0,0,1-2.085-1.046l.89-.717a2.474,2.474,0,0,0,1.44.76,1.944,1.944,0,0,0,1.368-.507,2.037,2.037,0,0,0,.823-1.7,3.7,3.7,0,0,0-.96-2.175l-.526-.65a3.8,3.8,0,0,0-1.86-1.371,1.894,1.894,0,0,0-1.8.384,2.191,2.191,0,0,0-.862,1.248,2.384,2.384,0,0,0,.417,1.586Z" transform="translate(-134.839 -147.329)"/><path d="M1013.323,756.381l.249-1.5-1.649-2.4.938-.644,4.881,7.112-.938.644-2.414-3.516-.746,5.685-1.134.778.644-5.062-5.744-1.9,1.123-.77Z" transform="translate(-128.559 -150.346)"/><path d="M993.829,769.593a5.324,5.324,0,0,1-.668-2.152,3.229,3.229,0,0,1,.385-1.842,3.335,3.335,0,0,1,4.956-1.029,5.116,5.116,0,0,1,1.407,1.683l.294.549a5.274,5.274,0,0,1,.655,2.142,3.2,3.2,0,0,1-1.747,3.165,3.341,3.341,0,0,1-1.848.42,3.223,3.223,0,0,1-1.758-.705,5.362,5.362,0,0,1-1.42-1.75Zm1.26-.042a3.867,3.867,0,0,0,1.654,1.786,2.194,2.194,0,0,0,3.017-1.613,3.791,3.791,0,0,0-.513-2.31l-.3-.559a3.868,3.868,0,0,0-1.653-1.766,2.191,2.191,0,0,0-3.044,1.575,3.852,3.852,0,0,0,.537,2.323Z" transform="translate(-122.164 -155.748)"/><path d="M982.431,779.874,980.1,774.5a2.75,2.75,0,0,1-.091-2.137,3.094,3.094,0,0,1,1.547-1.621l.272-.131a3.23,3.23,0,0,1,2.375-.2,2.735,2.735,0,0,1,1.62,1.589l2.34,5.391-1.032.448-2.326-5.358a1.8,1.8,0,0,0-2.606-1.019,2,2,0,0,0-1.151,1.061,1.97,1.97,0,0,0,.109,1.536l2.328,5.363Z" transform="translate(-116.189 -158.612)"/><path d="M969.882,784.157l2.62-.906-2.516-7.273,1.07-.37,2.516,7.273,2.614-.9.3.879-6.3,2.181Z" transform="translate(-111.727 -161.008)"/><path d="M951.739,788.948l2.7-.643-1.785-7.485,1.1-.262,1.785,7.486,2.691-.642.216.9-6.489,1.547Z" transform="translate(-103.59 -163.228)"/><path d="M934.658,783.6l1.13-.176.612,3.94,4.3-.667-.611-3.94,1.124-.174,1.323,8.524-1.124.174-.569-3.665-4.3.667.569,3.665-1.13.175Z" transform="translate(-95.929 -164.137)"/><path d="M922.282,789.1l3.727-.284-.232-3.048-4.33.329-.071-.927,5.465-.416.654,8.6-5.405.411-.071-.928,4.271-.325-.211-2.77-3.727.284Z" transform="translate(-89.972 -165.111)"/><path d="M902.045,786.466a2.631,2.631,0,0,1,1.25-.9,4.948,4.948,0,0,1,1.835-.258,3.547,3.547,0,0,1,1.857.548,3.3,3.3,0,0,1,1.224,1.443,4.86,4.86,0,0,1,.4,2.127l-.022.753a4.535,4.535,0,0,1-1,2.994,3.169,3.169,0,0,1-2.587,1,3.274,3.274,0,0,1-2.154-.752,3.01,3.01,0,0,1-.95-1.986l1.137.033a1.88,1.88,0,0,0,1.988,1.776,2.013,2.013,0,0,0,1.755-.753,3.922,3.922,0,0,0,.662-2.309l.02-.706a3.674,3.674,0,0,0-.6-2.327,2.153,2.153,0,0,0-1.77-.908,3.987,3.987,0,0,0-1.123.11,1.73,1.73,0,0,0-.807.456l-.056,1.932,2,.057-.026.93-3.127-.09Z" transform="translate(-81.238 -165.356)"/><path d="M888.653,786.251l3.593.395,1.053-2.155,1.166.127-4.216,8.215-.989-.109-2.338-8.934,1.16.127Zm3.149,1.282-2.915-.32,1.02,4.171Z" transform="translate(-74.52 -164.678)"/><path d="M879.5,783.361l-4.02-.74.169-.914,5.144.947-1.562,8.484-1.124-.207Z" transform="translate(-69.39 -163.744)"/><path d="M868.084,780.79l-3.963-1,.228-.9,5.07,1.284-2.118,8.362-1.109-.281Z" transform="translate(-64.294 -162.478)"/><path d="M850.29,779.16l3.553,1.161.95-2.906-4.127-1.35.289-.884,5.209,1.7-2.681,8.2L848.33,783.4l.289-.884,4.071,1.331.864-2.641L850,780.043Z" transform="translate(-57.211 -160.817)"/><path d="M840.233,774.481l1.875.768,1.322-3.229,1.058.433-3.269,7.982-2.643-1.081a3.38,3.38,0,0,1-1.823-1.464,2.387,2.387,0,0,1,.005-2.085,2.324,2.324,0,0,1,.935-1.134,2.6,2.6,0,0,1,1.46-.368l-.488-4.156.026-.066,1.13.462Zm1.523,1.629-1.618-.662a1.968,1.968,0,0,0-1.413-.1,1.486,1.486,0,0,0-.909.9,1.563,1.563,0,0,0-.024,1.318,2.013,2.013,0,0,0,1.11.923l1.612.661Z" transform="translate(-51.914 -158.529)"/><path d="M827.3,770.957l-3.941,2.88-1.157-.574,5.068-3.524,1.429-2.882,1.019.505-1.43,2.882.261,6.167-1.168-.58Z" transform="translate(-45.491 -157.083)"/><path d="M799.894,751.562a3.175,3.175,0,0,1,2.058-1.117,3.31,3.31,0,0,1,2.266.725,3.04,3.04,0,0,1,1.34,2.325,4.411,4.411,0,0,1-.975,2.916l-.487.671a4.91,4.91,0,0,1-1.589,1.46,3.208,3.208,0,0,1-1.808.42,3.4,3.4,0,0,1-1.765-.675,3.114,3.114,0,0,1-1.334-1.915,3.209,3.209,0,0,1,.464-2.286l.926.671a2.475,2.475,0,0,0-.358,1.589,1.947,1.947,0,0,0,.848,1.188,2.036,2.036,0,0,0,1.857.35,3.7,3.7,0,0,0,1.848-1.495l.491-.677a3.8,3.8,0,0,0,.837-2.154,1.9,1.9,0,0,0-.842-1.636,2.189,2.189,0,0,0-1.43-.506,2.386,2.386,0,0,0-1.422.816Z" transform="translate(-34.435 -149.717)"/><path d="M789.077,739.079l.867.745-2.6,3.024,3.3,2.834,2.6-3.024.863.741-5.622,6.542-.863-.741,2.417-2.813-3.3-2.834-2.417,2.813-.867-.746Z" transform="translate(-28.115 -144.625)"/><path d="M776.865,732.93l2.637,2.649,2.166-2.157-3.064-3.077.659-.656,3.866,3.884-6.113,6.086-3.825-3.842.66-.656,3.022,3.035,1.969-1.96-2.637-2.649Z" transform="translate(-23.513 -140.414)"/><path d="M768.655,721.973a3.172,3.172,0,0,1,2.261-.608,3.307,3.307,0,0,1,2.036,1.23,3.039,3.039,0,0,1,.764,2.573,4.41,4.41,0,0,1-1.626,2.609l-.629.54a4.91,4.91,0,0,1-1.884,1.051,3.206,3.206,0,0,1-1.856-.011,3.389,3.389,0,0,1-1.559-1.067,3.116,3.116,0,0,1-.853-2.172,3.214,3.214,0,0,1,.983-2.116l.745.867a2.48,2.48,0,0,0-.718,1.463,1.944,1.944,0,0,0,.549,1.352,2.034,2.034,0,0,0,1.725.772,3.7,3.7,0,0,0,2.144-1.024l.635-.545a3.8,3.8,0,0,0,1.314-1.9,1.9,1.9,0,0,0-.438-1.786,2.191,2.191,0,0,0-1.273-.824,2.385,2.385,0,0,0-1.573.463Z" transform="translate(-19.975 -136.668)"/><path d="M760.373,713.517l1.507.2L764.233,712l.672.918-6.962,5.093-.672-.918,3.443-2.518L755.008,714l-.812-1.109,5.079.49,1.726-5.8.8,1.1Z" transform="translate(-14.993 -130.499)"/><path d="M748.217,694.413a5.34,5.34,0,0,1,2.132-.732,3.224,3.224,0,0,1,1.853.33,3.334,3.334,0,0,1,1.178,4.922,5.111,5.111,0,0,1-1.639,1.458l-.539.31a5.277,5.277,0,0,1-2.122.72,3.2,3.2,0,0,1-3.216-1.65,3.348,3.348,0,0,1-.477-1.834,3.225,3.225,0,0,1,.652-1.778,5.354,5.354,0,0,1,1.706-1.472Zm.081,1.259a3.868,3.868,0,0,0-1.735,1.707,2.033,2.033,0,0,0,.147,1.9,2.009,2.009,0,0,0,1.557,1.063,3.787,3.787,0,0,0,2.293-.582l.55-.317a3.866,3.866,0,0,0,1.715-1.706,2.189,2.189,0,0,0-1.666-3,3.85,3.85,0,0,0-2.305.607Z" transform="translate(-11.04 -124.255)"/><path d="M736.776,683.323l5.307-2.5a2.752,2.752,0,0,1,2.134-.156,3.1,3.1,0,0,1,1.667,1.5l.139.269a3.228,3.228,0,0,1,.27,2.368,2.734,2.734,0,0,1-1.54,1.668l-5.317,2.5-.479-1.019,5.285-2.488a1.8,1.8,0,0,0,.94-2.636,2,2,0,0,0-1.1-1.118,1.969,1.969,0,0,0-1.532.154l-5.291,2.49Z" transform="translate(-7.18 -118.362)"/><path d="M732.207,670.935l.985,2.592,7.193-2.737.4,1.058-7.193,2.736.983,2.586-.869.331-2.372-6.235Z" transform="translate(-4.74 -113.998)"/><path d="M726.973,653.069l.725,2.677,7.428-2.012.3,1.093-7.428,2.012.724,2.67-.9.244-1.744-6.439Z" transform="translate(-2.38 -106.05)"/><path d="M731.624,635.628l.209,1.124-3.919.73.8,4.275,3.92-.73.208,1.118-8.48,1.581-.208-1.118,3.646-.679-.8-4.275-3.646.679-.209-1.124Z" transform="translate(-1.066 -98.227)"/><path d="M726.172,623.428l.4,3.717,3.04-.324-.459-4.318.925-.1.58,5.449-8.577.913-.574-5.39.925-.1.453,4.26,2.763-.294-.4-3.718Z" transform="translate(-0.329 -92.297)"/><path d="M728.329,603.34a2.628,2.628,0,0,1,.958,1.208,4.943,4.943,0,0,1,.34,1.822,3.542,3.542,0,0,1-.464,1.88,3.29,3.29,0,0,1-1.386,1.287,4.858,4.858,0,0,1-2.107.494l-.752.012a4.538,4.538,0,0,1-3.036-.86,3.171,3.171,0,0,1-1.114-2.539,3.274,3.274,0,0,1,.655-2.185,3,3,0,0,1,1.941-1.039l.018,1.138a1.881,1.881,0,0,0-1.685,2.065,2.013,2.013,0,0,0,.832,1.72,3.92,3.92,0,0,0,2.337.558l.705-.012a3.677,3.677,0,0,0,2.3-.7,2.15,2.15,0,0,0,.828-1.809,3.973,3.973,0,0,0-.16-1.117,1.734,1.734,0,0,0-.491-.786l-1.933.031.033,2-.93.015-.051-3.128Z" transform="translate(0 -83.746)"/><path d="M728.053,589.717l-.286,3.6,2.186.988-.093,1.169-8.338-3.967.079-.992,8.86-2.606-.093,1.164Zm-1.186,3.186.233-2.924-4.138,1.145Z" transform="translate(-0.338 -76.826)"/><path d="M730.363,580.492l.618-4.041.919.141-.791,5.171-8.526-1.3.173-1.13Z" transform="translate(-0.814 -71.687)"/><path d="M732.4,569.013l.883-3.992.908.2-1.129,5.107-8.423-1.862.247-1.117Z" transform="translate(-1.734 -66.56)"/><path d="M733.322,551.366l-1.053,3.586,2.933.861,1.223-4.167.892.262-1.544,5.258-8.276-2.429,1.527-5.2.892.263-1.207,4.11,2.666.783,1.053-3.587Z" transform="translate(-3.019 -59.615)"/><path d="M737.32,541.113l-.711,1.9,3.268,1.223-.4,1.071L731.4,542.28l1-2.674a3.378,3.378,0,0,1,1.408-1.867,2.384,2.384,0,0,1,2.083-.058,2.318,2.318,0,0,1,1.162.9,2.592,2.592,0,0,1,.413,1.448l4.14-.613.066.024-.428,1.143Zm-1.582,1.571.613-1.636a1.971,1.971,0,0,0,.061-1.416,1.483,1.483,0,0,0-.925-.881,1.562,1.562,0,0,0-1.318.015,2.022,2.022,0,0,0-.889,1.138l-.61,1.631Z" transform="translate(-4.768 -54.205)"/><path d="M741.128,528.1l-3-3.852.538-1.174,3.677,4.958,2.924,1.341-.474,1.034-2.924-1.341-6.156.448.543-1.185Z" transform="translate(-6.703 -47.747)"/></g></svg>