<?xml version="1.0" standalone="no"?>
<!DOCTYPE svg PUBLIC "-//W3C//DTD SVG 20010904//EN"
 "http://www.w3.org/TR/2001/REC-SVG-20010904/DTD/svg10.dtd">
<svg version="1.0" xmlns="http://www.w3.org/2000/svg"
 width="700.000000pt" height="700.000000pt" viewBox="0 0 700.000000 700.000000"
 preserveAspectRatio="xMidYMid meet">
<metadata>
Created by potrace 1.14, written by Peter Selinger 2001-2017
</metadata>
<g transform="translate(0.000000,700.000000) scale(0.100000,-0.100000)"
fill="#000000" stroke="none">
<path d="M3298 6995 c-1 -1 -46 -5 -99 -9 -53 -4 -104 -8 -115 -10 -10 -2 -41
-7 -69 -10 -27 -4 -72 -11 -100 -16 -27 -5 -61 -12 -75 -14 -209 -38 -523
-132 -677 -202 -28 -13 -54 -24 -57 -24 -12 0 -250 -119 -326 -163 -47 -28
-94 -55 -105 -61 -31 -17 -229 -149 -235 -156 -3 -3 -39 -31 -80 -62 -205
-154 -446 -394 -624 -622 -72 -93 -246 -348 -246 -361 0 -3 -11 -22 -23 -43
-100 -159 -253 -508 -314 -717 -32 -109 -73 -275 -88 -360 -10 -49 -18 -97
-20 -105 -2 -9 -6 -43 -10 -75 -4 -33 -9 -69 -11 -80 -25 -135 -25 -674 0
-813 2 -9 7 -44 11 -77 4 -32 9 -68 11 -80 2 -11 9 -47 15 -80 162 -904 717
-1744 1494 -2263 305 -203 621 -350 975 -453 141 -42 366 -90 483 -105 29 -3
63 -8 77 -10 186 -26 650 -25 840 2 449 65 792 171 1165 361 72 36 146 76 165
89 19 13 38 24 43 24 4 0 13 5 20 10 7 6 64 44 127 86 260 173 482 369 715
635 17 19 46 54 65 79 19 25 38 50 43 55 101 124 256 373 352 564 197 392 312
790 358 1236 14 129 15 570 3 665 -3 25 -11 81 -16 125 -6 44 -12 89 -14 100
-2 11 -11 61 -21 110 -114 613 -417 1219 -841 1684 -85 93 -258 261 -334 322
-36 30 -67 56 -70 60 -13 16 -230 171 -299 214 -248 154 -459 258 -696 343
-111 40 -237 81 -265 87 -8 2 -42 10 -75 19 -71 18 -196 45 -245 52 -19 3 -60
9 -91 15 -31 5 -81 12 -110 15 -30 3 -67 8 -84 10 -34 6 -521 14 -527 9z m442
-1068 c14 -3 43 -8 65 -12 122 -17 283 -76 394 -143 71 -43 180 -141 211 -190
8 -12 28 -25 43 -28 38 -6 103 -48 123 -79 13 -19 15 -37 9 -73 -3 -26 -8
-382 -10 -792 -1 -410 -3 -748 -4 -751 -1 -6 -126 26 -231 59 l-25 7 -1 540
c-1 297 -2 548 -3 558 -5 64 -127 -57 -158 -158 -9 -29 -13 -155 -13 -473 l0
-433 -32 6 c-18 3 -42 8 -53 10 -18 3 -141 18 -157 19 -3 1 -9 4 -12 7 -3 3
-6 202 -6 443 -1 412 -2 441 -20 476 -47 92 -151 132 -343 133 -181 1 -276
-21 -335 -76 -58 -53 -57 -45 -62 -532 -3 -289 -9 -450 -15 -451 -30 -1 -176
-21 -217 -30 l-27 -5 -3 453 c-3 448 -3 453 -26 495 -29 55 -78 110 -112 128
-26 13 -28 13 -32 -8 -2 -12 -4 -265 -3 -563 l0 -541 -95 -23 c-52 -13 -110
-29 -127 -36 -18 -7 -34 -10 -34 -6 -1 4 -3 342 -4 752 -2 410 -7 769 -11 798
-7 52 -6 53 35 92 26 25 58 44 85 51 33 8 51 21 79 57 102 132 281 236 492
286 107 26 116 27 180 33 33 3 62 7 64 9 6 6 360 -3 391 -9z m38 -2031 c52 -4
101 -9 110 -11 10 -1 40 -6 67 -9 28 -4 62 -9 76 -11 14 -3 41 -7 60 -9 256
-35 634 -154 935 -296 l91 -42 -1 -187 c-1 -102 -3 -185 -6 -184 -3 0 -44 20
-92 42 -48 23 -89 41 -92 41 -3 0 -6 -214 -6 -475 0 -373 3 -475 13 -475 6 -1
50 -20 97 -43 64 -31 85 -47 85 -62 1 -37 11 -40 117 -39 l103 1 5 -56 5 -56
108 0 c89 0 107 -2 108 -15 0 -21 0 -311 0 -332 -1 -17 -18 -18 -205 -18 -197
0 -204 1 -238 24 -290 196 -781 384 -1148 439 -310 47 -650 51 -870 12 -8 -1
-40 -6 -70 -11 -30 -4 -57 -8 -60 -9 -39 -9 -71 -16 -99 -20 -19 -3 -37 -8
-41 -10 -4 -2 -21 -7 -38 -10 -52 -9 -260 -73 -362 -112 -131 -49 -343 -153
-478 -235 l-114 -68 -199 0 -199 0 -1 23 c0 26 0 329 0 338 1 3 49 5 109 5
l107 -1 5 55 5 55 108 0 107 0 0 26 c0 20 9 33 38 50 20 13 44 26 52 29 8 3
36 15 61 27 l47 21 -1 471 c0 339 -3 471 -11 471 -6 0 -50 -22 -98 -49 l-86
-49 0 193 0 193 97 45 c423 200 814 303 1251 333 52 3 96 7 97 8 6 5 365 -2
451 -8z"/>
<path d="M3378 3545 c-2 -1 -50 -5 -108 -8 -58 -4 -141 -11 -185 -17 -44 -6
-98 -13 -120 -16 -90 -12 -289 -56 -406 -90 -68 -20 -133 -39 -144 -42 -11 -2
-25 -8 -30 -13 -7 -5 -10 -172 -10 -481 0 -411 2 -473 15 -470 8 2 71 19 140
38 216 60 476 106 680 122 204 15 599 6 755 -17 211 -32 467 -89 589 -131 33
-11 62 -20 65 -20 3 0 5 214 5 476 l-1 477 -31 13 c-45 19 -261 79 -372 103
-110 24 -319 56 -435 67 -74 6 -402 13 -407 9z"/>
</g>
</svg>
